PathFileType	3	(X/Y/Z)	D:\minhoCalibration\240510\subject2_KPNP\preferred\preferred01.trc
DataRate	CameraRate	NumFrames	NumMarkers	Units	OrigDataRate	OrigDataStartFrame	OrigNumFrames
200.0	200.0	12	10	mm	200.0	429	233	
Frame#	Time	Left_Ankle_Outer1			Left_Ankle_Inner1			Left_Knee_Outer1			Left_Knee_Inner1			Left_Wrist1			Right_Wrist1			Right_Knee_Inner1			Right_Knee_Outer1			Right_Ankle_Inner1			Right_Ankle_Outer1			
		X1	Y1	Z1	X2	Y2	Z2	X3	Y3	Z3	X4	Y4	Z4	X5	Y5	Z5	X6	Y6	Z6	X7	Y7	Z7	X8	Y8	Z8	X9	Y9	Z9	X10	Y10	Z10	
429	2.135	-447.04318	99.817596	-741.71655	-440.49963	100.6684	-687.42816	-264.8186	509.51355	-797.96735	-274.47971	492.15137	-702.87555	-300.01468	956.95337	-848.66888	-449.59546	1120.8964	-584.29376	-315.85587	830.01038	-205.75783	-395.48557	887.58917	-195.26915	-541.40894	471.39688	-220.92302	-615.73669	518.3559	-178.33798
430	2.14	-446.53641	100.42904	-744.30872	-440.79144	101.99421	-688.71741	-262.38239	510.42569	-797.33795	-274.40823	492.54971	-702.23499	-297.68588	958.38953	-847.3573	-451.44388	1119.1177	-584.18781	-320.51474	821.53467	-207.88884	-400.56192	877.3161	-197.88252	-541.87164	460.7951	-238.5163	-617.19354	506.37747	-195.82631
431	2.145	-445.86478	100.74578	-746.64575	-441.25134	102.37798	-691.33948	-260.34457	510.88309	-796.41748	-274.35294	492.91534	-701.59601	-295.18692	959.95905	-846.40955	-452.98956	1117.3932	-583.88409	-325.25906	812.69196	-210.35405	-405.99084	867.3277	-200.62933	-541.26996	450.91876	-256.83401	-618.23395	494.03851	-213.84926
432	2.15	-445.29202	101.36919	-749.1344	-441.23041	102.1872	-695.16119	-258.61328	510.85501	-795.34912	-274.27377	493.30136	-700.88757	-292.76724	961.59503	-845.31451	-455.2276	1115.5586	-583.89044	-330.20422	803.49359	-213.16422	-412.15219	856.85455	-202.75577	-540.66498	441.10947	-274.45319	-619.0506	481.83621	-232.36957
433	2.155	-444.67017	102.01789	-751.54517	-441.51529	103.04707	-696.76685	-256.45367	511.30234	-794.45258	-274.22742	493.63873	-700.1955	-290.24585	963.22424	-844.11542	-457.86539	1113.6019	-584.01025	-335.20953	794.06232	-216.33167	-417.86536	846.17761	-205.82719	-538.88458	432.02878	-292.42288	-619.68158	470.29202	-250.62721
434	2.16	-443.98386	102.61095	-753.90619	-441.33447	104.16967	-698.51733	-254.6387	511.5484	-793.43451	-274.13672	493.83838	-699.508	-287.70981	964.91028	-842.84998	-460.20096	1111.649	-584.0174	-340.27966	784.37732	-219.90678	-423.61856	835.2984	-209.25165	-538.78772	421.74713	-309.22565	-620.33636	459.01199	-267.92825
435	2.165	-443.23795	103.14	-756.18646	-441.75253	103.27305	-702.81018	-252.85822	511.93839	-792.48749	-273.80536	494.05145	-698.75525	-285.24387	966.53815	-841.42249	-462.65332	1109.6979	-584.0556	-345.5014	774.44269	-223.93958	-429.38361	824.32526	-213.15622	-537.1554	412.22324	-327.18005	-619.89252	446.61017	-289.15408
436	2.17	-442.54919	103.7215	-758.461	-441.18826	104.88767	-703.90637	-251.27054	512.31958	-791.4931	-273.66788	494.24695	-698.1178	-282.8215	968.19543	-839.92023	-465.23721	1107.6641	-584.20233	-350.7348	764.39838	-228.24989	-434.82635	813.16162	-218.05223	-536.30682	402.9093	-343.52582	-619.80865	435.97272	-306.58408
437	2.175	-441.87296	104.29465	-760.68359	-441.60989	104.78831	-706.43402	-249.81819	512.76514	-790.42151	-273.69833	494.43991	-697.62994	-280.50705	969.77106	-838.2923	-467.77634	1105.6244	-584.3562	-355.96063	754.07886	-232.95549	-441.06799	801.974	-222.33305	-534.40741	393.8277	-360.98373	-619.33508	424.68417	-326.16202
438	2.18	-441.09305	104.7886	-762.90594	-441.62329	105.23272	-708.63531	-248.6252	513.24359	-789.17761	-273.64215	494.58081	-697.07843	-278.18985	971.32507	-836.62219	-470.42825	1103.587	-584.48273	-361.27371	743.65039	-238.13756	-447.31458	790.7453	-226.95157	-533.16412	384.10126	-377.83624	-618.86829	413.80878	-344.27911
439	2.185	-440.30771	105.16693	-765.05298	-441.75092	104.69421	-712.0296	-247.50043	513.68073	-788.03094	-273.27054	494.75583	-696.33386	-275.75668	972.78046	-834.93988	-473.08289	1101.4991	-584.69519	-366.56973	733.08667	-243.67015	-452.68436	779.06647	-233.54201	-531.37347	374.79202	-394.86343	-618.4082	404.30066	-359.95837
440	2.19	-439.4837	105.57295	-767.19348	-441.72638	105.08951	-714.05566	-246.46358	514.16229	-786.7699	-272.85315	494.8511	-695.68585	-273.8923	974.16931	-832.82001	-475.86252	1099.4612	-584.90411	-371.90057	722.39679	-249.71986	-459.03406	767.89154	-238.85155	-529.8811	365.95187	-411.69785	-617.75183	394.07224	-376.8259
